<?xml version="1.0" encoding="utf-8"?>
<!-- Generator: Adobe Illustrator 24.0.0, SVG Export Plug-In . SVG Version: 6.00 Build 0)  -->
<svg version="1.1" id="Layer_2_copy_xA0_Image_1_" xmlns="http://www.w3.org/2000/svg" xmlns:xlink="http://www.w3.org/1999/xlink"
	 x="0px" y="0px" viewBox="0 0 621 618" style="enable-background:new 0 0 621 618;" xml:space="preserve">
<style type="text/css">
	.st0{fill:#98ABB7;}
	.st1{fill:#169CE3;}
	.st2{fill:#F3F4F4;}
	.st3{fill:#7EC6ED;}
	.st4{fill:#3B3C44;}
	.st5{fill:#E0E0E0;}
</style>
<g>
	<path class="st0" d="M355,155.3c0-7.8,0-15.7,0-23.5c0-0.9-0.4-1.4-1.1-1.8c-3.8-2.2-7.7-4.4-11.5-6.6c-0.8-0.5-1.4-0.6-2.1,0.2
		c-1.3,1.4-2.9,2.3-4.7,2.7c-1.1,0.2-1.2,0.7-1.2,1.7c0,5.2,0,10.3,0,15.5c0,5.2,0,10.3,0,15.5c0,0.9,0.1,1.4,1.2,1.7
		c1.9,0.4,3.5,1.4,4.9,2.8c0.6,0.7,1.1,0.6,1.8,0.2c3.8-2.3,7.7-4.5,11.6-6.7C354.7,156.7,355.1,156.2,355,155.3z"/>
	<path class="st0" d="M379.3,180.6c0-2.3,0-4.6,0-6.9c0-0.7-0.2-1.2-0.9-1.6c-6.9-3.9-13.8-7.9-20.7-11.9c-0.6-0.3-1-0.4-1.6,0
		c-4,2.3-8,4.6-12,6.9c-0.7,0.4-0.9,0.8-0.6,1.6c0.6,1.9,0.6,3.9,0,5.8c-0.3,0.9,0,1.3,0.7,1.6c9.1,5.2,18.1,10.4,27.2,15.7
		c0.7,0.4,1.2,0.5,1.8-0.2c1.4-1.4,3.1-2.4,5-2.9c0.9-0.2,1.1-0.7,1-1.5C379.3,185.1,379.3,182.9,379.3,180.6z"/>
	<path class="st0" d="M343.5,118.3c-0.3,0.9,0,1.3,0.7,1.7c3.9,2.2,7.8,4.5,11.7,6.8c0.7,0.4,1.2,0.4,1.9,0
		c6.8-4,13.7-7.9,20.5-11.8c0.7-0.4,0.9-0.8,0.9-1.5c0-2.3,0-4.6,0-6.9c0-2.3,0-4.6,0-6.9c0-0.7-0.1-1.1-1-1.3c-2-0.5-3.7-1.5-5.2-3
		c-0.5-0.5-0.9-0.6-1.5-0.2c-9.1,5.3-18.3,10.6-27.5,15.8c-0.7,0.4-0.9,0.7-0.6,1.5C344.1,114.4,344.1,116.4,343.5,118.3z"/>
	<path class="st0" d="M384.1,114.9c6.9,4,13.8,7.9,20.7,11.9c0.6,0.3,1,0.4,1.6,0c4-2.3,8-4.6,12-6.9c0.6-0.3,0.9-0.6,0.6-1.4
		c-0.6-2-0.6-4.1,0-6.1c0.3-0.8-0.1-1.1-0.6-1.4c-9.2-5.3-18.3-10.5-27.5-15.8c-0.7-0.4-1.1-0.3-1.7,0.3c-1.4,1.4-3,2.4-4.9,2.8
		c-1.1,0.2-1.2,0.8-1.2,1.7c0,2.1,0,4.2,0,6.4c0,2.3,0,4.7,0,7C383.2,114.1,383.5,114.5,384.1,114.9z"/>
	<path class="st1" d="M376.1,142.8c-5.7-3-11.3-6.4-17.2-9.8c0,7.8,0,15.2,0,22.7c0,0.7,0.4,1,0.9,1.3c2.3,1.3,4.5,2.6,6.8,3.9
		c4.1,2.4,8.3,4.8,12.6,7.3c0-0.8,0-1.3,0-1.8c0-6-0.2-12,0.1-18C379.5,145.5,378.6,144.1,376.1,142.8z"/>
	<path class="st1" d="M403.3,133.2c-6.4,3.7-12.9,7.4-19.4,11.1c-0.6,0.3-0.7,0.8-0.7,1.3c0,7.4,0,14.8,0,22.4
		c0.3-0.1,0.5-0.1,0.6-0.2c6.3-3.6,12.5-7.2,18.9-10.8c0.8-0.5,0.9-1.1,0.9-1.9c0-6.9,0-13.8,0-20.7
		C403.6,134,403.8,133.5,403.3,133.2z"/>
	<path class="st1" d="M401.3,129.4c-0.2-0.2-0.4-0.3-0.6-0.5c-6.2-3.6-12.4-7.1-18.5-10.7c-0.8-0.4-1.3-0.3-1.9,0.1
		c-3.8,2.2-7.5,4.4-11.3,6.5c-2.6,1.5-5.2,3-8,4.6c6.8,3.9,13.3,7.6,19.7,11.4c0.8,0.4,1.2,0,1.8-0.3c6-3.4,12-6.9,18-10.4
		C400.7,130.1,401.2,130,401.3,129.4z"/>
	<path class="st0" d="M428.1,143.7c0-5.2,0-10.4,0-15.7c0-0.9-0.1-1.4-1.2-1.7c-1.9-0.4-3.6-1.4-4.9-2.8c-0.6-0.7-1.1-0.6-1.8-0.2
		c-3.9,2.3-7.8,4.5-11.7,6.8c-0.7,0.4-1,0.9-1,1.7c0,7.8,0,15.7,0,23.5c0,0.8,0.3,1.3,1,1.7c3.9,2.2,7.8,4.5,11.7,6.8
		c0.8,0.5,1.3,0.4,1.9-0.3c1.3-1.4,2.9-2.3,4.8-2.7c1.1-0.2,1.2-0.7,1.2-1.7C428.1,154,428.1,148.8,428.1,143.7z"/>
	<path class="st1" d="M381.3,48.1c-52.7,0-95.5,42.7-95.5,95.5s42.7,95.5,95.5,95.5s95.5-42.7,95.5-95.5S434,48.1,381.3,48.1z
		 M432,158.9c0,1.1,0.2,1.6,1.4,1.9c4.7,1.4,7.8,5.4,8.1,10.2c0.3,4.6-2.4,9-6.5,11c-4.3,2-9.2,1.3-12.7-2.1
		c-0.7-0.7-1.2-0.8-2.1-0.3c-9,5.2-18,10.4-27.1,15.6c-1.1,0.6-0.8,1.2-0.7,2.1c0.9,4.7-0.5,8.6-4.2,11.4c-3.8,2.9-8,3.3-12.3,1.1
		c-4.2-2.2-6.1-5.9-6.1-10.6c0-0.3,0-0.7,0.1-1c0.4-2.5,0.4-2.5-1.9-3.8c-8.4-4.8-16.8-9.7-25.2-14.6c-1.1-0.6-1.7-0.7-2.8,0.2
		c-3.6,3.2-7.9,3.9-12.3,1.9c-4.4-2-6.5-5.6-6.7-9.6c0-5.8,3.2-10.2,8.3-11.7c1-0.3,1.2-0.7,1.2-1.7c0-10.3,0-20.7,0-31
		c0-0.9-0.2-1.4-1.2-1.7c-4.8-1.4-8-5.4-8.3-10.2c-0.3-4.5,2.3-8.9,6.4-10.9c4.4-2.1,9.3-1.4,13,2.1c0.6,0.6,1.1,0.7,1.8,0.3
		c9-5.2,18.1-10.5,27.2-15.6c1.2-0.7,0.8-1.4,0.6-2.3c-0.9-4.6,0.5-8.4,4.2-11.3c3.7-2.9,7.9-3.3,12.1-1.2c4.2,2.1,6.2,5.8,6.3,10.5
		c0,0.4,0,0.8-0.1,1.1c-0.9,2,0.1,2.9,1.8,3.8c8.5,4.8,17,9.7,25.5,14.7c0.9,0.5,1.5,0.7,2.5-0.2c3.5-3.3,8.5-4,12.7-1.9
		c4.2,2,6.7,6.5,6.4,11.1c-0.3,4.6-3.4,8.6-7.9,10c-1.2,0.4-1.6,0.8-1.6,2.1C432.1,138.5,432.1,148.7,432,158.9z"/>
	<path class="st0" d="M419,168.8c0.3-1-0.1-1.3-0.8-1.7c-3.9-2.2-7.8-4.4-11.6-6.7c-0.8-0.5-1.3-0.4-2.1,0
		c-6.7,3.9-13.5,7.8-20.2,11.7c-0.8,0.5-1.1,1-1.1,1.9c0.1,2.2,0,4.4,0,6.5c0,2.3,0,4.6,0,6.9c0,0.7,0.1,1.1,1,1.3
		c2,0.5,3.8,1.5,5.2,3c0.6,0.6,1,0.5,1.7,0.2c9.1-5.3,18.2-10.5,27.3-15.7c0.6-0.4,0.9-0.7,0.7-1.5
		C418.5,172.7,418.4,170.7,419,168.8z"/>
	<path class="st0" d="M381.3,30.2c-62.6,0-113.4,50.8-113.4,113.4s50.8,113.4,113.4,113.4s113.4-50.8,113.4-113.4
		S443.9,30.2,381.3,30.2z M381.3,245.8c-56.5,0-102.2-45.8-102.2-102.2S324.8,41.3,381.3,41.3s102.2,45.8,102.2,102.2
		S437.7,245.8,381.3,245.8z"/>
</g>
<g>
	<path class="st1" d="M5.8,147.9c-2.4-13.3,0-21.6,0-32.3c9.2,0,18.3-0.1,27.5-0.1c21.9,1.5,38,12,48.5,31.8
		c10.6-19.3,26.2-29.9,47.5-31.8c9.7,0.2,19.4,0.4,29,0.6c0,8.7,0.1,17.3,0,26c-0.5,26.2-17.5,47.2-43.1,53.1
		c-3.1,0.7-4,1.6-2.4,4.8c9.3,18.8,22.2,34.6,39,47c23.8,17.6,50.6,25.7,80.1,25.7c109.7-0.1,219.5,0,329.2,0c2.9,0,5.9,0.1,8.8,0.3
		c22.4,1.7,40.6,18.2,43.5,41.5c2.9,23.3-0.7,38.4-4,44.3c-24.1,0-48.3-0.2-72.4,0c-5.8,0.1-11.7,1.3-17.3,2.5
		c-28.9,6.4-53.8,20-74.6,41.1c-29.2,29.8-64.8,44.5-106.4,44.6c-4.4,0-5.4,1.5-5.5,5.6c-0.4,20.3-5.1,39.6-12.9,58.4
		c-1.5,3.7-4.2,7-4.5,11.2c-0.8,1.4-1.7,2.8-2.5,4.2c-15.1,26.4-35.9,47.1-62.4,62.1c-17.7,10-37,15.3-56.5,20
		c-10.3,2.5-10.2,2.5-10.3-7.8c-0.5-42.3,12.3-79.9,40.4-111.9c2.9-3.2,1-4.2-1.4-5.7c-45.3-30.4-78.5-70.7-99.2-121.3
		c-21.9-53.6-43.9-107.1-65.7-160.7c-1.3-3.2-2.9-4.7-6.5-5.3c-15.2-2.6-27.1-10.5-36.1-23.1C10.4,165.2,8.3,161.2,5.8,147.9z
		 M248.7,474.3c2.5,0.2,4.9-1.2,7-3c2.3-1.9,4.4-3.9,6.7-5.8c10-8.6,20.2-17.1,30.1-25.8c4.2-3.7,4.4-8.3,1.2-12.2
		c-3.1-3.7-8.2-4.3-12.2-1c-13.1,11-26.1,22.2-39.1,33.3c-2.7,2.3-3.8,5.4-2.5,8.8C241.3,472.3,244.1,474.4,248.7,474.3z
		 M440.4,351.5c8.8,0,15.9-7,15.9-15.8c0.1-9-7.1-16.2-16.1-16.2c-8.7,0-15.9,7.2-16,15.9C424.2,344.3,431.4,351.6,440.4,351.5z"/>
	<path class="st2" d="M609.5,358.7c-2.6,12.1-6.1,23.9-10.4,35.4c-0.8,2.3-1.6,4.6-3.2,6.5c-27.5,0-55.1,0-82.6,0
		c-5.3,0-9.3,3.7-9.5,8.4c-0.2,4.6,3.2,8.3,8.5,9c1.8,0.2,3.6,0.2,5.4,0.2c23.1,0,46.3,0.1,69.4,0.1c-2.7,7.2-6.4,13.9-11.8,19.6
		c-36,0-72.1,0-108.1,0c-2.4,0-4.9-0.1-7.3,0.7c-3.9,1.3-5.9,4.2-5.9,8.1c0,3.9,2,6.8,5.9,8.1c2.5,0.8,5.1,0.7,7.7,0.7
		c31,0.1,61.9,0.1,92.9,0.2c-0.1,2.3-1.6,3.8-3.1,5.3c-5.6,5.6-11,11.3-17.4,16.1c-2.9-0.8-5.8-1-8.7-1c-42.3,0-84.5,0-126.8,0
		c-2.3,0-4.6,0.1-6.8,0.5c-6.7,1.1-9.2,3.9-8.7,9.5c0.4,5.2,3.5,7.6,10,7.6c14.4,0,28.7,0,43.1,0c24.1,0,48.3,0.1,72.4,0.2
		c-0.6,2.1-2.2,3.1-3.9,4.2c-21.2,12.7-44.1,21-68.3,25.3c-12,2.1-24.2,3.6-36.4,3.6c-19.1-0.1-38.1,0.9-57.2-1
		c-8.6-0.8-17.1-2.1-25.7-3.2c-2.4-0.3-4.9-0.4-7.3-0.7c0.3-4.2,2.9-7.5,4.5-11.2c7.7-18.7,12.5-38.1,12.9-58.4
		c0.1-4.1,1.1-5.6,5.5-5.6c41.6-0.1,77.2-14.8,106.4-44.6c20.8-21.2,45.8-34.7,74.6-41.1c5.7-1.3,11.6-2.5,17.3-2.5
		C561.3,358.5,585.4,358.7,609.5,358.7z"/>
	<path class="st3" d="M248.7,474.3c-4.6,0.1-7.4-2-8.8-5.6c-1.4-3.4-0.2-6.5,2.5-8.8c13-11.2,26-22.3,39.1-33.3
		c4-3.4,9.1-2.8,12.2,1c3.2,3.8,3,8.5-1.2,12.2c-9.9,8.7-20.1,17.2-30.1,25.8c-2.2,1.9-4.4,3.9-6.7,5.8
		C253.6,473.1,251.2,474.5,248.7,474.3z"/>
	<path class="st4" d="M440.4,351.5c-9,0-16.2-7.2-16.1-16.2c0.1-8.7,7.2-15.8,16-15.9c9,0,16.2,7.2,16.1,16.2
		C456.2,344.5,449.2,351.5,440.4,351.5z"/>
	<path class="st5" d="M514.5,493.9c-24.1-0.1-48.3-0.1-72.4-0.2c-14.4,0-28.7,0-43.1,0c-6.5,0-9.5-2.4-10-7.6
		c-0.5-5.5,2-8.3,8.7-9.5c2.2-0.4,4.5-0.5,6.8-0.5c42.3,0,84.5,0,126.8,0c3,0,5.9,0.2,8.7,1c-6.2,6.6-13.7,11.4-21.3,16.1
		C517.7,493.9,516,493.7,514.5,493.9z"/>
	<path class="st5" d="M560.6,455.7c-31-0.1-61.9-0.1-92.9-0.2c-2.6,0-5.2,0.1-7.7-0.7c-3.9-1.3-5.9-4.2-5.9-8.1
		c0-3.9,1.9-6.8,5.9-8.1c2.4-0.8,4.8-0.7,7.3-0.7c36,0,72.1,0,108.1,0C571.6,444.8,567,451,560.6,455.7z"/>
	<path class="st5" d="M587,418.3c-23.1,0-46.3,0-69.4-0.1c-1.8,0-3.6,0.1-5.4-0.2c-5.3-0.7-8.7-4.4-8.5-9c0.2-4.7,4.2-8.4,9.5-8.4
		c27.5,0,55.1,0,82.6,0C594.1,407.2,591.3,413.1,587,418.3z"/>
</g>
</svg>
